<svg xmlns="http://www.w3.org/2000/svg" xmlns:xlink="http://www.w3.org/1999/xlink" width="119" height="119" viewBox="0 0 119 119">
  <defs>
    <clipPath id="clip-light-off">
      <rect width="119" height="119"/>
    </clipPath>
  </defs>
  <g id="light-off" clip-path="url(#clip-light-off)">
    <path id="lightbulb-solid_1_" data-name="lightbulb-solid (1)" d="M38.338,105.609a7.448,7.448,0,0,0,1.228,4.112l3.984,5.972a8.312,8.312,0,0,0,6.192,3.319H64.078a8.308,8.308,0,0,0,6.185-3.319l3.97-5.969a8.762,8.762,0,0,0,1.243-4.114l.03-9.112H38.315ZM56.771.013A40.737,40.737,0,0,0,26.125,67.628c3.842,4.379,9.842,13.535,12.138,21.257.007.058.022.12.029.182H75.53c.007-.062.022-.12.029-.182,2.3-7.722,8.3-16.878,12.138-21.257A39.863,39.863,0,0,0,97.821,40.711,40.867,40.867,0,0,0,56.771.013Zm.139,22.314a18.571,18.571,0,0,0-18.6,18.386A3.78,3.78,0,0,1,34.6,44.639a3.73,3.73,0,0,1-3.719-3.719A25.886,25.886,0,0,1,56.91,15.1a3.717,3.717,0,0,1,3.719,3.719A3.553,3.553,0,0,1,56.91,22.327Z" transform="translate(3.335 -0.012)"/>
  </g>
</svg>
