<svg xmlns="http://www.w3.org/2000/svg" xmlns:xlink="http://www.w3.org/1999/xlink" width="309" height="159" viewBox="0 0 309 159">
  <defs>
    <filter id="Rectangle_1025" x="6" y="33" width="296" height="99" filterUnits="userSpaceOnUse">
      <feOffset dy="3" input="SourceAlpha"/>
      <feGaussianBlur stdDeviation="3" result="blur"/>
      <feFlood flood-opacity="0.031"/>
      <feComposite operator="in" in2="blur"/>
      <feComposite in="SourceGraphic"/>
    </filter>
  </defs>
  <g id="Group_497" data-name="Group 497" transform="translate(-3254 -4447)">
    <g id="Rectangle_1024" data-name="Rectangle 1024" transform="translate(3254 4447)" fill="#f7f7f7" stroke="rgba(255,255,255,0.1)" stroke-width="1">
      <rect width="309" height="159" stroke="none"/>
      <rect x="0.5" y="0.5" width="308" height="158" fill="none"/>
    </g>
    <g transform="matrix(1, 0, 0, 1, 3254, 4447)" filter="url(#Rectangle_1025)">
      <g id="Rectangle_1025-2" data-name="Rectangle 1025" transform="translate(15 39)" fill="#fff" stroke="rgba(255,255,255,0.1)" stroke-width="1">
        <rect width="278" height="81" rx="8" stroke="none"/>
        <rect x="0.5" y="0.5" width="277" height="80" rx="7.5" fill="none"/>
      </g>
    </g>
    <text id="Bedroom_1" data-name="Bedroom 1" transform="translate(3335 4532)" font-size="20" font-family="Metropolis-SemiBold, Metropolis" font-weight="600"><tspan x="0" y="0">Bedroom 1</tspan></text>
    <circle id="Ellipse_82" data-name="Ellipse 82" cx="25.5" cy="25.5" r="25.5" transform="translate(3468 4501)" fill="#6747e8"/>
    <path id="power-off-solid_2_" data-name="power-off-solid (2)" d="M30.7,13.835a1.729,1.729,0,0,1-3.459,0V1.729a1.729,1.729,0,0,1,3.459,0Zm-11.241,0A9.511,9.511,0,1,0,35.05,6.517a1.729,1.729,0,1,1,2.21-2.659,12.97,12.97,0,1,1-16.58,0,1.731,1.731,0,0,1,2.437.224,1.775,1.775,0,0,1-.227,2.435A9.5,9.5,0,0,0,19.459,13.835Z" transform="translate(3464.799 4513.572)" fill="#fff"/>
    <path id="lightbulb-solid_1_" data-name="lightbulb-solid (1)" d="M23.358,34.8a2.453,2.453,0,0,0,.4,1.354l1.312,1.967a2.738,2.738,0,0,0,2.04,1.093h4.722a2.737,2.737,0,0,0,2.037-1.093l1.308-1.966a2.886,2.886,0,0,0,.409-1.355l.01-3H23.35ZM29.43.012A13.419,13.419,0,0,0,19.335,22.285a22.025,22.025,0,0,1,4,7c0,.019.007.04.01.06H35.609c0-.02.007-.04.01-.06a22.018,22.018,0,0,1,4-7,13.131,13.131,0,0,0,3.334-8.866A13.461,13.461,0,0,0,29.43.012Zm.046,7.35a6.117,6.117,0,0,0-6.125,6.056,1.245,1.245,0,0,1-1.225,1.293A1.229,1.229,0,0,1,20.9,13.487a8.527,8.527,0,0,1,8.576-8.507A1.224,1.224,0,0,1,30.7,6.206,1.17,1.17,0,0,1,29.476,7.363Z" transform="translate(3278.812 4506.798)"/>
  </g>
</svg>
